<svg xmlns="http://www.w3.org/2000/svg" xmlns:ev="http://www.w3.org/2001/xml-events" xmlns:xlink="http://www.w3.org/1999/xlink" baseProfile="full" height="500" version="1.1" width="500"><defs><style type="text/css"><![CDATA[.background path {fill: #808080; fill-opacity: 0}.background path:nth-child(odd) {fill-opacity: .1}.x-regions rect {fill: yellow; stroke: black; opacity: 0.5}.axes {font-size: 14px}.x-axis .tick .lab {font-weight: bold; dominant-baseline: hanging}.axes, .tree {font-size: 14px; text-anchor: middle}.axes line, .edge {stroke: black; fill: none}.axes .ax-skip {stroke-dasharray: 4}.y-axis .grid {stroke: #FAFAFA}.node > .sym {fill: black; stroke: none}.site > .sym {stroke: black}.mut text {fill: red; font-style: italic}.mut.extra text {fill: hotpink}.mut line {fill: none; stroke: none}.mut .sym {fill: none; stroke: red}.mut.extra .sym {stroke: hotpink}.node .mut .sym {stroke-width: 1.5px}.tree text, .tree-sequence text {dominant-baseline: central}.plotbox .lab.lft {text-anchor: end}.plotbox .lab.rgt {text-anchor: start}.polytomy line {stroke: black; stroke-dasharray: 1px, 1px}.polytomy text {paint-order:stroke;stroke-width:0.3em;stroke:white}]]></style></defs><g class="tree-sequence"><g class="background"><path d="M20,0 l460,0 l0,438.2 l0,25 l0,5 l-460,0 l0,-5 l0,-25 l0,-438.2z"/></g><g class="axes"><g class="x-axis"><g class="title" transform="translate(250 500)"><text class="lab" text-anchor="middle" transform="translate(0 -11)">Genome position</text></g><line class="ax-line" x1="20" x2="480" y1="463.2" y2="463.2"/><g class="ticks"><g class="tick" transform="translate(20 463.2)"><line x1="0" x2="0" y1="0" y2="5"/><g transform="translate(0 6)"><text class="lab">0</text></g></g><g class="tick" transform="translate(480 463.2)"><line x1="0" x2="0" y1="0" y2="5"/><g transform="translate(0 6)"><text class="lab">1</text></g></g></g></g></g><g class="plotbox trees"><g class="tree t0" transform="translate(20 0)"><g class="plotbox"><g class="c2 node n6 root" transform="translate(230 26.8)"><g class="a6 c2 node n4" transform="translate(-105 263.067)"><g class="a4 leaf node n0 sample" transform="translate(-52.5 131.533)"><path class="edge" d="M 0 0 V -131.533 H 52.5"/><rect class="sym" height="6" width="6" x="-3" y="-3"/><text class="lab" transform="translate(0 11)">0</text></g><g class="a4 leaf node n1 sample" transform="translate(52.5 131.533)"><path class="edge" d="M 0 0 V -131.533 H -52.5"/><rect class="sym" height="6" width="6" x="-3" y="-3"/><text class="lab" transform="translate(0 11)">1</text></g><path class="edge" d="M 0 0 V -263.067 H 105"/><circle class="sym" cx="0" cy="0" r="3"/><text class="lab lft" transform="translate(-3 -7)">4</text></g><g class="a6 c2 node n5" transform="translate(105 131.533)"><g class="a5 leaf node n2 sample" transform="translate(-52.5 263.067)"><path class="edge" d="M 0 0 V -263.067 H 52.5"/><rect class="sym" height="6" width="6" x="-3" y="-3"/><text class="lab" transform="translate(0 11)">2</text></g><g class="a5 leaf node n3 sample" transform="translate(52.5 263.067)"><path class="edge" d="M 0 0 V -263.067 H -52.5"/><rect class="sym" height="6" width="6" x="-3" y="-3"/><text class="lab" transform="translate(0 11)">3</text></g><path class="edge" d="M 0 0 V -131.533 H -105"/><circle class="sym" cx="0" cy="0" r="3"/><text class="lab rgt" transform="translate(3 -7)">5</text></g><circle class="sym" cx="0" cy="0" r="3"/><text class="lab" transform="translate(0 -11)">6</text></g></g></g></g></g></svg>