<svg xmlns="http://www.w3.org/2000/svg" xmlns:ev="http://www.w3.org/2001/xml-events" xmlns:xlink="http://www.w3.org/1999/xlink" baseProfile="full" height="500" version="1.1" width="500"><defs><style type="text/css"><![CDATA[.background path {fill: #808080; fill-opacity: 0}.background path:nth-child(odd) {fill-opacity: .1}.x-regions rect {fill: yellow; stroke: black; opacity: 0.5}.axes {font-size: 14px}.x-axis .tick .lab {font-weight: bold; dominant-baseline: hanging}.axes, .tree {font-size: 14px; text-anchor: middle}.axes line, .edge {stroke: black; fill: none}.axes .ax-skip {stroke-dasharray: 4}.y-axis .grid {stroke: #FAFAFA}.node > .sym {fill: black; stroke: none}.site > .sym {stroke: black}.mut text {fill: red; font-style: italic}.mut.extra text {fill: hotpink}.mut line {fill: none; stroke: none}.mut .sym {fill: none; stroke: red}.mut.extra .sym {stroke: hotpink}.node .mut .sym {stroke-width: 1.5px}.tree text, .tree-sequence text {dominant-baseline: central}.plotbox .lab.lft {text-anchor: end}.plotbox .lab.rgt {text-anchor: start}.polytomy line {stroke: black; stroke-dasharray: 1px, 1px}.polytomy text {paint-order:stroke;stroke-width:0.3em;stroke:white}]]></style></defs><g class="tree-sequence"><g class="background"><path d="M20,0 l460,0 l0,438.2 l0,25 l0,5 l-460,0 l0,-5 l0,-25 l0,-438.2z"/></g><g class="axes"><g class="x-axis"><g class="title" transform="translate(250 500)"><text class="lab" text-anchor="middle" transform="translate(0 -11)">Genome position</text></g><line class="ax-line" x1="20" x2="480" y1="463.2" y2="463.2"/><g class="ticks"><g class="tick" transform="translate(20 463.2)"><line x1="0" x2="0" y1="0" y2="5"/><g transform="translate(0 6)"><text class="lab">0</text></g></g><g class="tick" transform="translate(480 463.2)"><line x1="0" x2="0" y1="0" y2="5"/><g transform="translate(0 6)"><text class="lab">1</text></g></g></g></g></g><g class="plotbox trees"><g class="tree t0" transform="translate(20 0)"><g class="plotbox"><g class="leaf node n2 root sample" transform="translate(35 26.8)"><rect class="sym" height="6" width="6" x="-3" y="-3"/><text class="lab" transform="translate(0 11)">2</text></g><g class="leaf node n3 root sample" transform="translate(65 26.8)"><rect class="sym" height="6" width="6" x="-3" y="-3"/><text class="lab" transform="translate(0 11)">3</text></g><g class="c2 node n5 root sample" transform="translate(110 26.8)"><g class="a5 leaf node n6 sample" transform="translate(-15 98.65)"><path class="edge" d="M 0 0 V -98.65 H 15"/><rect class="sym" height="6" width="6" x="-3" y="-3"/><text class="lab" transform="translate(0 11)">6</text></g><g class="a5 c1 node n8 sample" transform="translate(15 98.65)"><g class="a8 c1 node n15 sample" transform="translate(0.0 98.65)"><g class="a15 leaf node n22 sample" transform="translate(0.0 98.65)"><path class="edge" d="M 0 0 V -98.65 H 0.0"/><rect class="sym" height="6" width="6" x="-3" y="-3"/><text class="lab" transform="translate(0 11)">22</text></g><path class="edge" d="M 0 0 V -98.65 H 0.0"/><rect class="sym" height="6" width="6" x="-3" y="-3"/><text class="lab lft" transform="translate(-3 -7)">15</text></g><path class="edge" d="M 0 0 V -98.65 H -15"/><rect class="sym" height="6" width="6" x="-3" y="-3"/><text class="lab rgt" transform="translate(3 -7)">8</text></g><rect class="sym" height="6" width="6" x="-3" y="-3"/><text class="lab" transform="translate(0 -11)">5</text></g><g class="c2 node n0 root sample" transform="translate(170 26.8)"><g class="a0 leaf node n10 sample" transform="translate(-15 98.65)"><path class="edge" d="M 0 0 V -98.65 H 15"/><rect class="sym" height="6" width="6" x="-3" y="-3"/><text class="lab" transform="translate(0 11)">10</text></g><g class="a0 leaf node n11 sample" transform="translate(15 98.65)"><path class="edge" d="M 0 0 V -98.65 H -15"/><rect class="sym" height="6" width="6" x="-3" y="-3"/><text class="lab" transform="translate(0 11)">11</text></g><rect class="sym" height="6" width="6" x="-3" y="-3"/><text class="lab" transform="translate(0 -11)">0</text></g><g class="c1 node n4 root sample" transform="translate(297.5 26.8)"><g class="a4 c4 node n9 sample" transform="translate(0.0 98.65)"><g class="a9 leaf node n12 sample" transform="translate(-82.5 98.65)"><path class="edge" d="M 0 0 V -98.65 H 82.5"/><rect class="sym" height="6" width="6" x="-3" y="-3"/><text class="lab" transform="translate(0 11)">12</text></g><g class="a9 c2 node n14 sample" transform="translate(82.5 98.65)"><g class="a14 c1 node n20 sample" transform="translate(15 98.65)"><g class="a20 leaf node n27 sample" transform="translate(0.0 98.65)"><path class="edge" d="M 0 0 V -98.65 H 0.0"/><rect class="sym" height="6" width="6" x="-3" y="-3"/><text class="lab" transform="translate(0 11)">27</text></g><path class="edge" d="M 0 0 V -98.65 H -15"/><rect class="sym" height="6" width="6" x="-3" y="-3"/><text class="lab rgt" transform="translate(3 -7)">20</text></g><g class="a14 c1 node n23 sample" transform="translate(-15 98.65)"><g class="a23 leaf node n26 sample" transform="translate(0.0 98.65)"><path class="edge" d="M 0 0 V -98.65 H 0.0"/><rect class="sym" height="6" width="6" x="-3" y="-3"/><text class="lab" transform="translate(0 11)">26</text></g><path class="edge" d="M 0 0 V -98.65 H 15"/><rect class="sym" height="6" width="6" x="-3" y="-3"/><text class="lab lft" transform="translate(-3 -7)">23</text></g><path class="edge" d="M 0 0 V -98.65 H -82.5"/><rect class="sym" height="6" width="6" x="-3" y="-3"/><text class="lab rgt" transform="translate(3 -7)">14</text></g><g class="a9 c2 node n16 sample" transform="translate(-37.5 98.65)"><g class="a16 c1 node n18 sample" transform="translate(-15 98.65)"><g class="a18 leaf node n24 sample" transform="translate(0.0 98.65)"><path class="edge" d="M 0 0 V -98.65 H 0.0"/><rect class="sym" height="6" width="6" x="-3" y="-3"/><text class="lab" transform="translate(0 11)">24</text></g><path class="edge" d="M 0 0 V -98.65 H 15"/><rect class="sym" height="6" width="6" x="-3" y="-3"/><text class="lab lft" transform="translate(-3 -7)">18</text></g><g class="a16 c1 node n21 sample" transform="translate(15 98.65)"><g class="a21 leaf node n29 sample" transform="translate(0.0 98.65)"><path class="edge" d="M 0 0 V -98.65 H 0.0"/><rect class="sym" height="6" width="6" x="-3" y="-3"/><text class="lab" transform="translate(0 11)">29</text></g><path class="edge" d="M 0 0 V -98.65 H -15"/><rect class="sym" height="6" width="6" x="-3" y="-3"/><text class="lab rgt" transform="translate(3 -7)">21</text></g><path class="edge" d="M 0 0 V -98.65 H 37.5"/><rect class="sym" height="6" width="6" x="-3" y="-3"/><text class="lab rgt" transform="translate(3 -7)">16</text></g><g class="a9 c1 node n17 sample" transform="translate(22.5 98.65)"><g class="a17 c2 node n19 sample" transform="translate(0.0 98.65)"><g class="a19 leaf node n25 sample" transform="translate(-15 98.65)"><path class="edge" d="M 0 0 V -98.65 H 15"/><rect class="sym" height="6" width="6" x="-3" y="-3"/><text class="lab" transform="translate(0 11)">25</text></g><g class="a19 leaf node n28 sample" transform="translate(15 98.65)"><path class="edge" d="M 0 0 V -98.65 H -15"/><rect class="sym" height="6" width="6" x="-3" y="-3"/><text class="lab" transform="translate(0 11)">28</text></g><path class="edge" d="M 0 0 V -98.65 H 0.0"/><rect class="sym" height="6" width="6" x="-3" y="-3"/><text class="lab lft" transform="translate(-3 -7)">19</text></g><path class="edge" d="M 0 0 V -98.65 H -22.5"/><rect class="sym" height="6" width="6" x="-3" y="-3"/><text class="lab rgt" transform="translate(3 -7)">17</text></g><path class="edge" d="M 0 0 V -98.65 H 0.0"/><rect class="sym" height="6" width="6" x="-3" y="-3"/><text class="lab lft" transform="translate(-3 -7)">9</text></g><rect class="sym" height="6" width="6" x="-3" y="-3"/><text class="lab" transform="translate(0 -11)">4</text></g><g class="c1 node n1 root sample" transform="translate(425 26.8)"><g class="a1 c1 node n7 sample" transform="translate(0.0 98.65)"><g class="a7 leaf node n13 sample" transform="translate(0.0 98.65)"><path class="edge" d="M 0 0 V -98.65 H 0.0"/><rect class="sym" height="6" width="6" x="-3" y="-3"/><text class="lab" transform="translate(0 11)">13</text></g><path class="edge" d="M 0 0 V -98.65 H 0.0"/><rect class="sym" height="6" width="6" x="-3" y="-3"/><text class="lab lft" transform="translate(-3 -7)">7</text></g><rect class="sym" height="6" width="6" x="-3" y="-3"/><text class="lab" transform="translate(0 -11)">1</text></g></g></g></g></g></svg>