<svg xmlns="http://www.w3.org/2000/svg" xmlns:ev="http://www.w3.org/2001/xml-events" xmlns:xlink="http://www.w3.org/1999/xlink" baseProfile="full" height="500" version="1.1" width="500"><defs><style type="text/css"><![CDATA[.axis {font-weight: bold}.tree, .axis {font-size: 14px; text-anchor:middle}.edge {stroke: black; fill: none}.node > .sym {fill: black; stroke: none}.tree text {dominant-baseline: middle}.tree .lab.lft {text-anchor: end}.tree .lab.rgt {text-anchor: start}.mut {fill: red; font-style: italic}]]></style></defs><g class="tree-sequence"><g class="background"><polygon fill="#F1F1F1" points="20,485 20,480 20,460 20,0 480.0,0 480.0,460 480.0,480 480.0,485"/></g><g class="trees"><g class="treebox t0" transform="translate(20 30)"><g class="tree t0"><g class="node n6 root" transform="translate(230.0 30.0)"><g class="a6 node n4" transform="translate(-88.0 253.333)"><g class="a4 leaf node n0 sample" transform="translate(-44.0 126.667)"><path class="edge" d="M 0 0 V -126.667 H 44.0"/><circle class="sym" cx="0" cy="0" r="3"/><text class="lab" transform="translate(0 12)">0</text></g><g class="a4 leaf node n1 sample" transform="translate(44.0 126.667)"><path class="edge" d="M 0 0 V -126.667 H -44.0"/><circle class="sym" cx="0" cy="0" r="3"/><text class="lab" transform="translate(0 12)">1</text></g><path class="edge" d="M 0 0 V -253.333 H 88.0"/><circle class="sym" cx="0" cy="0" r="3"/><text class="lab lft" transform="translate(-3 -6)">4</text></g><g class="a6 node n5" transform="translate(88.0 126.667)"><g class="a5 leaf node n2 sample" transform="translate(-44.0 253.333)"><path class="edge" d="M 0 0 V -253.333 H 44.0"/><circle class="sym" cx="0" cy="0" r="3"/><text class="lab" transform="translate(0 12)">2</text></g><g class="a5 leaf node n3 sample" transform="translate(44.0 253.333)"><path class="edge" d="M 0 0 V -253.333 H -44.0"/><circle class="sym" cx="0" cy="0" r="3"/><text class="lab" transform="translate(0 12)">3</text></g><path class="edge" d="M 0 0 V -126.667 H -88.0"/><circle class="sym" cx="0" cy="0" r="3"/><text class="lab rgt" transform="translate(3 -6)">5</text></g><circle class="sym" cx="0" cy="0" r="3"/><text class="lab" transform="translate(0 -10)">6</text></g></g></g></g><g class="axis"><line stroke="black" x1="20" x2="480" y1="480" y2="480"/><line stroke="black" x1="20" x2="20" y1="480" y2="485"/><g transform="translate(20, 500)"><text font-size="14" font-weight="bold" text-anchor="middle">0</text></g><line stroke="black" x1="480.0" x2="480.0" y1="480" y2="485"/><g transform="translate(480.0, 500)"><text font-size="14" font-weight="bold" text-anchor="middle">1</text></g></g></g></svg>