<svg xmlns="http://www.w3.org/2000/svg" xmlns:ev="http://www.w3.org/2001/xml-events" xmlns:xlink="http://www.w3.org/1999/xlink" baseProfile="full" height="500" version="1.1" width="500"><defs><style type="text/css"><![CDATA[.axis {font-weight: bold}.tree, .axis {font-size: 14px; text-anchor:middle}.edge {stroke: black; fill: none}.node > .sym {fill: black; stroke: none}.tree text {dominant-baseline: middle}.tree .lab.lft {text-anchor: end}.tree .lab.rgt {text-anchor: start}.mut {fill: red; font-style: italic}]]></style></defs><g class="tree-sequence"><g class="background"><polygon fill="#F1F1F1" points="20,485 20,480 20,460 20,0 480.0,0 480.0,460 480.0,480 480.0,485"/></g><g class="trees"><g class="treebox t0" transform="translate(20 30)"><g class="tree t0"><g class="node n9 root" transform="translate(230.0 30.0)"><g class="a9 node n6" transform="translate(0.0 253.333)"><g class="a6 leaf node n1 sample" transform="translate(-31.4286 126.667)"><path class="edge" d="M 0 0 V -126.667 H 31.4286"/><circle class="sym" cx="0" cy="0" r="3"/><text class="lab" transform="translate(0 12)">25-&gt;1</text></g><g class="a6 leaf node n4 sample" transform="translate(31.4286 126.667)"><path class="edge" d="M 0 0 V -126.667 H -31.4286"/><circle class="sym" cx="0" cy="0" r="3"/><text class="lab" transform="translate(0 12)">28-&gt;4</text></g><path class="edge" d="M 0 0 V -253.333 H 0.0"/><circle class="sym" cx="0" cy="0" r="3"/><text class="lab rgt" transform="translate(3 -6)">19-&gt;6</text></g><g class="a9 node n7" transform="translate(125.714 126.667)"><g class="a7 leaf node n2 sample" transform="translate(-31.4286 253.333)"><path class="edge" d="M 0 0 V -253.333 H 31.4286"/><circle class="sym" cx="0" cy="0" r="3"/><text class="lab" transform="translate(0 12)">26-&gt;2</text></g><g class="a7 leaf node n3 sample" transform="translate(31.4286 253.333)"><path class="edge" d="M 0 0 V -253.333 H -31.4286"/><circle class="sym" cx="0" cy="0" r="3"/><text class="lab" transform="translate(0 12)">27-&gt;3</text></g><path class="edge" d="M 0 0 V -126.667 H -125.714"/><circle class="sym" cx="0" cy="0" r="3"/><text class="lab rgt" transform="translate(3 -6)">14-&gt;7</text></g><g class="a9 node n8" transform="translate(-125.714 126.667)"><g class="a8 leaf node n0 sample" transform="translate(-31.4286 253.333)"><path class="edge" d="M 0 0 V -253.333 H 31.4286"/><circle class="sym" cx="0" cy="0" r="3"/><text class="lab" transform="translate(0 12)">24-&gt;0</text></g><g class="a8 leaf node n5 sample" transform="translate(31.4286 253.333)"><path class="edge" d="M 0 0 V -253.333 H -31.4286"/><circle class="sym" cx="0" cy="0" r="3"/><text class="lab" transform="translate(0 12)">29-&gt;5</text></g><path class="edge" d="M 0 0 V -126.667 H 125.714"/><circle class="sym" cx="0" cy="0" r="3"/><text class="lab lft" transform="translate(-3 -6)">16-&gt;8</text></g><circle class="sym" cx="0" cy="0" r="3"/><text class="lab" transform="translate(0 -10)">9-&gt;9</text></g></g></g></g><g class="axis"><line stroke="black" x1="20" x2="480" y1="480" y2="480"/><line stroke="black" x1="20" x2="20" y1="480" y2="485"/><g transform="translate(20, 500)"><text font-size="14" font-weight="bold" text-anchor="middle">0</text></g><line stroke="black" x1="480.0" x2="480.0" y1="480" y2="485"/><g transform="translate(480.0, 500)"><text font-size="14" font-weight="bold" text-anchor="middle">1</text></g></g></g></svg>