<svg xmlns="http://www.w3.org/2000/svg" xmlns:ev="http://www.w3.org/2001/xml-events" xmlns:xlink="http://www.w3.org/1999/xlink" baseProfile="full" height="500" version="1.1" width="500"><defs><style type="text/css"><![CDATA[.axis {font-weight: bold}.tree, .axis {font-size: 14px; text-anchor:middle}.edge {stroke: black; fill: none}.node > .sym {fill: black; stroke: none}.tree text {dominant-baseline: middle}.tree .lab.lft {text-anchor: end}.tree .lab.rgt {text-anchor: start}.mut {fill: red; font-style: italic}]]></style></defs><g class="tree-sequence"><g class="background"><polygon fill="#F1F1F1" points="20,485 20,480 20,460 20,0 480.0,0 480.0,460 480.0,480 480.0,485"/></g><g class="trees"><g class="treebox t0" transform="translate(20 30)"><g class="tree t0"><g class="node n0 root sample" transform="translate(54.0 30.0)"><g class="a0 leaf node n10 sample" transform="translate(-14.6667 95.0)"><path class="edge" d="M 0 0 V -95.0 H 14.6667"/><circle class="sym" cx="0" cy="0" r="3"/><text class="lab" transform="translate(0 12)">10</text></g><g class="a0 leaf node n11 sample" transform="translate(14.6667 95.0)"><path class="edge" d="M 0 0 V -95.0 H -14.6667"/><circle class="sym" cx="0" cy="0" r="3"/><text class="lab" transform="translate(0 12)">11</text></g><circle class="sym" cx="0" cy="0" r="3"/><text class="lab" transform="translate(0 -10)">0</text></g><g class="node n1 root sample" transform="translate(98.0 30.0)"><g class="a1 node n7 sample" transform="translate(0.0 95.0)"><g class="a7 leaf node n13 sample" transform="translate(0.0 95.0)"><path class="edge" d="M 0 0 V -95.0 H 0.0"/><circle class="sym" cx="0" cy="0" r="3"/><text class="lab" transform="translate(0 12)">13</text></g><path class="edge" d="M 0 0 V -95.0 H 0.0"/><circle class="sym" cx="0" cy="0" r="3"/><text class="lab lft" transform="translate(-3 -6)">7</text></g><circle class="sym" cx="0" cy="0" r="3"/><text class="lab" transform="translate(0 -10)">1</text></g><g class="leaf node n2 root sample" transform="translate(127.333 30.0)"><circle class="sym" cx="0" cy="0" r="3"/><text class="lab" transform="translate(0 12)">2</text></g><g class="leaf node n3 root sample" transform="translate(156.667 30.0)"><circle class="sym" cx="0" cy="0" r="3"/><text class="lab" transform="translate(0 12)">3</text></g><g class="node n4 root sample" transform="translate(266.667 30.0)"><g class="a4 node n9 sample" transform="translate(0.0 95.0)"><g class="a9 leaf node n12 sample" transform="translate(-80.6667 95.0)"><path class="edge" d="M 0 0 V -95.0 H 80.6667"/><circle class="sym" cx="0" cy="0" r="3"/><text class="lab" transform="translate(0 12)">12</text></g><g class="a9 node n14 sample" transform="translate(80.6667 95.0)"><g class="a14 node n20 sample" transform="translate(14.6667 95.0)"><g class="a20 leaf node n27 sample" transform="translate(0.0 95.0)"><path class="edge" d="M 0 0 V -95.0 H 0.0"/><circle class="sym" cx="0" cy="0" r="3"/><text class="lab" transform="translate(0 12)">27</text></g><path class="edge" d="M 0 0 V -95.0 H -14.6667"/><circle class="sym" cx="0" cy="0" r="3"/><text class="lab rgt" transform="translate(3 -6)">20</text></g><g class="a14 node n23 sample" transform="translate(-14.6667 95.0)"><g class="a23 leaf node n26 sample" transform="translate(0.0 95.0)"><path class="edge" d="M 0 0 V -95.0 H 0.0"/><circle class="sym" cx="0" cy="0" r="3"/><text class="lab" transform="translate(0 12)">26</text></g><path class="edge" d="M 0 0 V -95.0 H 14.6667"/><circle class="sym" cx="0" cy="0" r="3"/><text class="lab lft" transform="translate(-3 -6)">23</text></g><path class="edge" d="M 0 0 V -95.0 H -80.6667"/><circle class="sym" cx="0" cy="0" r="3"/><text class="lab rgt" transform="translate(3 -6)">14</text></g><g class="a9 node n16 sample" transform="translate(-36.6667 95.0)"><g class="a16 node n18 sample" transform="translate(-14.6667 95.0)"><g class="a18 leaf node n24 sample" transform="translate(0.0 95.0)"><path class="edge" d="M 0 0 V -95.0 H 0.0"/><circle class="sym" cx="0" cy="0" r="3"/><text class="lab" transform="translate(0 12)">24</text></g><path class="edge" d="M 0 0 V -95.0 H 14.6667"/><circle class="sym" cx="0" cy="0" r="3"/><text class="lab lft" transform="translate(-3 -6)">18</text></g><g class="a16 node n21 sample" transform="translate(14.6667 95.0)"><g class="a21 leaf node n29 sample" transform="translate(0.0 95.0)"><path class="edge" d="M 0 0 V -95.0 H 0.0"/><circle class="sym" cx="0" cy="0" r="3"/><text class="lab" transform="translate(0 12)">29</text></g><path class="edge" d="M 0 0 V -95.0 H -14.6667"/><circle class="sym" cx="0" cy="0" r="3"/><text class="lab rgt" transform="translate(3 -6)">21</text></g><path class="edge" d="M 0 0 V -95.0 H 36.6667"/><circle class="sym" cx="0" cy="0" r="3"/><text class="lab rgt" transform="translate(3 -6)">16</text></g><g class="a9 node n17 sample" transform="translate(22.0 95.0)"><g class="a17 node n19 sample" transform="translate(0.0 95.0)"><g class="a19 leaf node n25 sample" transform="translate(-14.6667 95.0)"><path class="edge" d="M 0 0 V -95.0 H 14.6667"/><circle class="sym" cx="0" cy="0" r="3"/><text class="lab" transform="translate(0 12)">25</text></g><g class="a19 leaf node n28 sample" transform="translate(14.6667 95.0)"><path class="edge" d="M 0 0 V -95.0 H -14.6667"/><circle class="sym" cx="0" cy="0" r="3"/><text class="lab" transform="translate(0 12)">28</text></g><path class="edge" d="M 0 0 V -95.0 H 0.0"/><circle class="sym" cx="0" cy="0" r="3"/><text class="lab lft" transform="translate(-3 -6)">19</text></g><path class="edge" d="M 0 0 V -95.0 H -22.0"/><circle class="sym" cx="0" cy="0" r="3"/><text class="lab rgt" transform="translate(3 -6)">17</text></g><path class="edge" d="M 0 0 V -95.0 H 0.0"/><circle class="sym" cx="0" cy="0" r="3"/><text class="lab lft" transform="translate(-3 -6)">9</text></g><circle class="sym" cx="0" cy="0" r="3"/><text class="lab" transform="translate(0 -10)">4</text></g><g class="node n5 root sample" transform="translate(406.0 30.0)"><g class="a5 leaf node n6 sample" transform="translate(-14.6667 95.0)"><path class="edge" d="M 0 0 V -95.0 H 14.6667"/><circle class="sym" cx="0" cy="0" r="3"/><text class="lab" transform="translate(0 12)">6</text></g><g class="a5 node n8 sample" transform="translate(14.6667 95.0)"><g class="a8 node n15 sample" transform="translate(0.0 95.0)"><g class="a15 leaf node n22 sample" transform="translate(0.0 95.0)"><path class="edge" d="M 0 0 V -95.0 H 0.0"/><circle class="sym" cx="0" cy="0" r="3"/><text class="lab" transform="translate(0 12)">22</text></g><path class="edge" d="M 0 0 V -95.0 H 0.0"/><circle class="sym" cx="0" cy="0" r="3"/><text class="lab lft" transform="translate(-3 -6)">15</text></g><path class="edge" d="M 0 0 V -95.0 H -14.6667"/><circle class="sym" cx="0" cy="0" r="3"/><text class="lab rgt" transform="translate(3 -6)">8</text></g><circle class="sym" cx="0" cy="0" r="3"/><text class="lab" transform="translate(0 -10)">5</text></g></g></g></g><g class="axis"><line stroke="black" x1="20" x2="480" y1="480" y2="480"/><line stroke="black" x1="20" x2="20" y1="480" y2="485"/><g transform="translate(20, 500)"><text font-size="14" font-weight="bold" text-anchor="middle">0</text></g><line stroke="black" x1="480.0" x2="480.0" y1="480" y2="485"/><g transform="translate(480.0, 500)"><text font-size="14" font-weight="bold" text-anchor="middle">1</text></g></g></g></svg>